<?xml version="1.0" encoding="utf-8" ?>
<svg xmlns="http://www.w3.org/2000/svg" xmlns:xlink="http://www.w3.org/1999/xlink" width="112" height="169">
	<path fill="none" stroke="#D500F9" stroke-width="2" stroke-miterlimit="10" transform="matrix(-1 0 0 1 110 1.21729)" d="M55.023384 51.77726L55.26857 51.450188L55.032089 51.369823L54.792706 51.445545L55.023384 51.77726ZM55.023384 51.77726C55.26857 51.450188 55.268932 51.450188 55.269295 51.450432L55.271111 51.451164L55.276913 51.453117L55.297588 51.460201C55.315361 51.466309 55.34111 51.475346 55.374844 51.487316C55.442307 51.511253 55.540596 51.546917 55.667904 51.594551C55.922886 51.689571 56.294292 51.832466 56.765079 52.025925C57.706291 52.412846 59.046841 53.001534 60.652523 53.813477C63.86425 55.43737 68.140869 57.954792 72.416039 61.534046C80.971458 68.697441 89.504753 80.101814 89.504753 97.076714C89.504753 120.04594 80.995758 133.20563 72.421478 140.63185C68.13652 144.34326 63.844299 146.61421 60.6119 147.95915C58.996422 148.63138 57.646446 149.07204 56.69508 149.34561C56.219574 149.48216 55.843815 149.57718 55.584484 149.63849C55.454636 149.66902 55.354168 149.69125 55.284531 149.70615C55.250072 149.71349 55.22287 149.7191 55.20401 149.72276L55.181885 149.72716L55.175358 149.72862L55.17318 149.72887C55.172455 149.72911 55.17173 149.72911 55.023384 149.37663L55.17173 149.72911L54.970791 149.76772L54.783638 149.70566L55.022297 149.3781C54.901878 149.54323 54.842033 149.62482 54.81229 149.66536C54.782913 149.70541 54.782551 149.70541 54.782551 149.70517L54.780735 149.70468L54.77457 149.70273L54.75317 149.6954C54.735035 149.6893 54.70892 149.68027 54.674828 149.66829C54.607002 149.64459 54.507984 149.60918 54.379589 149.56154C54.123158 149.46628 53.750664 149.32265 53.278423 149.12553C52.334309 148.73152 50.991589 148.12476 49.383366 147.26836C46.166561 145.55531 41.888126 142.84442 37.613319 138.84332C29.058989 130.83696 20.542017 117.68632 20.542017 97.076714C20.542017 79.692177 29.073498 68.286339 37.633266 61.223095C41.909889 57.69416 46.188686 55.253437 49.402588 53.693542C51.009724 52.913597 52.350994 52.353489 53.293293 51.987576C53.764809 51.804619 54.136215 51.670029 54.391556 51.580872C54.51923 51.536171 54.617882 51.502705 54.685345 51.480476C54.719078 51.469238 54.74519 51.46069 54.762962 51.45483L54.784 51.448235L54.789803 51.445778L54.791618 51.445778C54.791981 51.445778 54.792706 51.445778 55.023384 51.77726ZM55.224319 148.94698C55.16774 148.9604 55.117325 148.97188 55.074162 148.98166C55.026287 148.96455 54.969704 148.94379 54.904781 148.91962C54.663948 148.83046 54.307411 148.69293 53.851494 148.50264C52.940022 148.12231 51.631393 147.53119 50.057991 146.69336C46.911552 145.01793 42.705658 142.35516 38.496498 138.41536C30.082172 130.54018 21.630123 117.54073 21.630123 97.076714C21.630123 79.869026 30.067301 68.625137 38.476189 61.68647C42.683895 58.214695 46.889427 55.816719 50.038769 54.28809C51.613258 53.523777 52.92334 52.977104 53.836987 52.622429C54.293629 52.445091 54.65089 52.315628 54.892811 52.23111C54.937424 52.215477 54.978046 52.201553 55.014679 52.188854C55.052399 52.202778 55.094475 52.21841 55.1409 52.235508C55.383186 52.325886 55.741173 52.463654 56.198177 52.651497C57.112549 53.02718 58.423717 53.602921 59.999294 54.399719C63.150814 55.99308 67.358887 58.468975 71.568039 61.993271C79.981277 69.037712 88.416641 80.282822 88.416641 97.076714C88.416641 119.92161 79.956619 132.91177 71.562599 140.18216C67.363235 143.81906 63.171124 146.03285 60.039917 147.33578C58.474133 147.98749 57.172756 148.41129 56.267815 148.67168C55.815525 148.80164 55.462254 148.89079 55.224319 148.94698ZM54.789803 0.15882288C54.875038 0.099734515 54.951931 0.046777271 55.019756 0C55.08577 0.046117749 55.160122 0.098195635 55.242092 0.15613593C55.638889 0.43596905 56.221752 0.85308063 56.964203 1.4006801C58.449467 2.4959033 60.57309 4.1129069 63.122524 6.1969504C68.221024 10.365355 75.020607 16.400503 81.820183 23.864788C95.423683 38.798584 108.99999 59.424553 108.99999 82.251373C108.99999 112.95607 95.426224 133.67975 81.876762 146.72169C75.100037 153.24437 68.325844 157.84906 63.250557 160.82082C60.713093 162.30695 58.600716 163.38441 57.125244 164.08961C56.387871 164.44209 55.809361 164.70126 55.417278 164.87201C55.301212 164.92232 55.201469 164.96507 55.118412 165C55.029911 164.95799 54.921463 164.9062 54.794155 164.84416C54.391556 164.6485 53.798901 164.35318 53.043392 163.95599C51.532375 163.16139 49.369946 161.96008 46.772636 160.33669C41.578014 157.08939 34.647141 152.15469 27.71554 145.41046C13.855241 131.92493 -0.01340053 111.20003 9.7174243e-06 82.251617C0.010537811 59.440674 13.846899 38.815681 27.709011 23.878222C34.637711 16.412106 41.565685 10.374222 46.760666 6.2034969C49.358341 4.1183052 51.521858 2.5002756 53.035049 1.4042952C53.791649 0.856305 54.385391 0.43885142 54.789803 0.15882288Z" fill-rule="evenodd"/>
</svg>
